M48
;GenerationSoftware,Autodesk,EAGLE,9.4.2*%
;CreationDate,2020-08-27T21:57:08Z*%
FMAT,2
ICI,OFF
METRIC,TZ,000.000
T3C0.381
T2C0.559
T1C1.016
%
G90
M71
T1
X59436Y17526
X15240Y1270
X12700Y1270
X10160Y1270
X7620Y1270
X56896Y17526
X54356Y17526
X37338Y1270
X34798Y1270
X32258Y1270
X29718Y1270
X51816Y17526
X51816Y25654
X59436Y1270
X56896Y1270
X54356Y1270
X51816Y1270
X15240Y41910
X15240Y25654
X15240Y9398
X12700Y9398
X10160Y9398
X7620Y9398
X12700Y25654
X10160Y25654
X37338Y9398
X34798Y9398
X32258Y9398
X29718Y9398
X7620Y25654
X59436Y25654
X59436Y9398
X56896Y9398
X54356Y9398
X51816Y9398
X56896Y25654
X37338Y25654
X15240Y17526
X12700Y17526
X10160Y17526
X7620Y17526
X34798Y25654
X32258Y25654
X37338Y17526
X34798Y17526
X32258Y17526
X29718Y17526
X29718Y25654
X54356Y25654
X15240Y33782
X12700Y33782
X10160Y33782
X7620Y33782
X37338Y33782
X34798Y33782
X32258Y33782
X29718Y33782
X59436Y33782
X56896Y33782
X54356Y33782
X51816Y33782
X12700Y41910
X10160Y41910
X7620Y41910
X37338Y41910
X34798Y41910
X32258Y41910
X29718Y41910
X59436Y41910
X56896Y41910
X54356Y41910
X51816Y41910
X15240Y50038
X12700Y50038
X10160Y50038
X7620Y50038
X37338Y50038
X34798Y50038
X32258Y50038
X29718Y50038
X59436Y50038
X56896Y50038
X54356Y50038
X51816Y50038
X15240Y58166
X12700Y58166
X10160Y58166
X7620Y58166
X37338Y58166
X34798Y58166
X32258Y58166
X29718Y58166
X59436Y58166
X56896Y58166
X54356Y58166
X51816Y58166
T2
X43688Y19558
X43688Y20574
X65786Y19558
X21590Y27686
X43688Y43942
X43688Y44958
X21590Y28702
X43688Y27686
X43688Y28702
X65786Y27686
X65786Y43942
X65786Y44958
X65786Y20574
X43688Y36830
X21590Y3302
X21590Y4318
X21590Y52070
X21590Y53086
X43688Y3302
X21590Y35814
X21590Y36830
X43688Y4318
X43688Y52070
X43688Y53086
X65786Y3302
X65786Y4318
X21590Y11430
X43688Y35814
X65786Y52070
X65786Y53086
X21590Y12446
X43688Y11430
X43688Y12446
X65786Y11430
X21590Y60198
X21590Y61214
X65786Y35814
X65786Y36830
X65786Y28702
X65786Y12446
X43688Y60198
X43688Y61214
X21590Y19558
X21590Y20574
X21590Y43942
X21590Y44958
X65786Y60198
X65786Y61214
T3
X38608Y27686
X33274Y28448
X31623Y27305
X37592Y29972
X34671Y28511
X41021Y28067
X41021Y29591
X31750Y29083
X31750Y31115
X36195Y29972
X50546Y29210
X61214Y29210
X50292Y30480
X63881Y30099
X60706Y27686
X55372Y28448
X53721Y27305
X59690Y29972
X56769Y28511
X63119Y28067
X63119Y29591
X53848Y29083
X53848Y31115
X58293Y29972
X6350Y37338
X17018Y37338
X6096Y38608
X19685Y38227
X16510Y35814
X11176Y36576
X9525Y35433
X15494Y38100
X12573Y36640
X18923Y36195
X18923Y37719
X9652Y37211
X9652Y39243
X14097Y38100
X28448Y37338
X39116Y37338
X28194Y38608
X41783Y38227
X38608Y35814
X33274Y36576
X31623Y35433
X37592Y38100
X34671Y36640
X41021Y36195
X41021Y37719
X31750Y37211
X31750Y39243
X36195Y38100
X50546Y37338
X61214Y37338
X50292Y38608
X63881Y38227
X60706Y35814
X55372Y36576
X53721Y35433
X59690Y38100
X56769Y36640
X63119Y36195
X63119Y37719
X53848Y37211
X53848Y39243
X58293Y38100
X6350Y45466
X17018Y45466
X6096Y46736
X19685Y46355
X16510Y43942
X11176Y44704
X9525Y43561
X15494Y46228
X12573Y44767
X18923Y44323
X18923Y45847
X9652Y45339
X9652Y47371
X14097Y46228
X28448Y45466
X39116Y45466
X28194Y46736
X41783Y46355
X38608Y43942
X33274Y44704
X31623Y43561
X37592Y46228
X34671Y44767
X41021Y44323
X41021Y45847
X31750Y45339
X31750Y47371
X36195Y46228
X50546Y45466
X61214Y45466
X38608Y11430
X63881Y46355
X60706Y43942
X55372Y44704
X53721Y43561
X59690Y46228
X56769Y44767
X63119Y44323
X63119Y45847
X53848Y45339
X53848Y47371
X58293Y46228
X6350Y53594
X17018Y53594
X6096Y54864
X19685Y54483
X16510Y52070
X11176Y52832
X9525Y51689
X15494Y54356
X12573Y52895
X18923Y52451
X18923Y53975
X9652Y53467
X9652Y55499
X14097Y54356
X28448Y53594
X39116Y53594
X28194Y54864
X41783Y54483
X38608Y52070
X33274Y52832
X31623Y51689
X37592Y54356
X34671Y52895
X41021Y52451
X41021Y53975
X31750Y53467
X31750Y55499
X36195Y54356
X50546Y53594
X61214Y53594
X50292Y54864
X63881Y54483
X60706Y52070
X55372Y52832
X53721Y51689
X59690Y54356
X56769Y52895
X63119Y52451
X63119Y53975
X53848Y53467
X53848Y55499
X58293Y54356
X6350Y61722
X17018Y61722
X6096Y62992
X19685Y62611
X16510Y60198
X11176Y60960
X9525Y59817
X15494Y62484
X12573Y61023
X18923Y60579
X18923Y62103
X9652Y61595
X9652Y63627
X14097Y62484
X28448Y61722
X39116Y61722
X28194Y62992
X41783Y62611
X38608Y60198
X33274Y60960
X31623Y59817
X37592Y62484
X34671Y61023
X41021Y60579
X41021Y62103
X31750Y61595
X31750Y63627
X36195Y62484
X50546Y61722
X61214Y61722
X50292Y62992
X63881Y62611
X60706Y60198
X55372Y60960
X53721Y59817
X59690Y62484
X56769Y61023
X63119Y60579
X63119Y62103
X53848Y61595
X53848Y63627
X58293Y62484
X6350Y4826
X17018Y4826
X6096Y6096
X19685Y5715
X16510Y3302
X11176Y4064
X9525Y2921
X15494Y5588
X12573Y4128
X18923Y3683
X18923Y5207
X9652Y4699
X9652Y6731
X14097Y5588
X28448Y4826
X39116Y4826
X28194Y6096
X41783Y5715
X38608Y3302
X33274Y4064
X31623Y2921
X37592Y5588
X34671Y4128
X41021Y3683
X41021Y5207
X31750Y4699
X31750Y6731
X36195Y5588
X50546Y4826
X61214Y4826
X50292Y6096
X63881Y5715
X60706Y3302
X55372Y4064
X53721Y2921
X59690Y5588
X56769Y4128
X63119Y3683
X63119Y5207
X53848Y4699
X53848Y6731
X58293Y5588
X6350Y12954
X17018Y12954
X6096Y14224
X19685Y13843
X16510Y11430
X11176Y12192
X9525Y11049
X15494Y13716
X12573Y12255
X18923Y11811
X18923Y13335
X9652Y12827
X9652Y14859
X14097Y13716
X28448Y12954
X39116Y12954
X28194Y14224
X41783Y13843
X33274Y12192
X31623Y11049
X37592Y13716
X34671Y12255
X41021Y11811
X41021Y13335
X31750Y12827
X31750Y14859
X36195Y13716
X50546Y12954
X61214Y12954
X50292Y14224
X63881Y13843
X60706Y11430
X55372Y12192
X53721Y11049
X59690Y13716
X56769Y12255
X63119Y11811
X63119Y13335
X53848Y12827
X53848Y14859
X58293Y13716
X50292Y46736
X6350Y21082
X17018Y21082
X6096Y22352
X19685Y21971
X16510Y19558
X11176Y20320
X9525Y19177
X15494Y21844
X12573Y20384
X18923Y19939
X18923Y21463
X9652Y20955
X9652Y22987
X14097Y21844
X28448Y21082
X39116Y21082
X28194Y22352
X41783Y21971
X38608Y19558
X33274Y20320
X31623Y19177
X37592Y21844
X34671Y20384
X41021Y19939
X41021Y21463
X31750Y20955
X31750Y22987
X36195Y21844
X50546Y21082
X61214Y21082
X50292Y22352
X63881Y21971
X60706Y19558
X55372Y20320
X53721Y19177
X59690Y21844
X56769Y20384
X63119Y19939
X63119Y21463
X53848Y20955
X53848Y22987
X58293Y21844
X6350Y29210
X17018Y29210
X6096Y30480
X19685Y30099
X16510Y27686
X11176Y28448
X9525Y27305
X15494Y29972
X12573Y28511
X18923Y28067
X18923Y29591
X9652Y29083
X9652Y31115
X14097Y29972
X28448Y29210
X39116Y29210
X28194Y30480
X41783Y30099
M30